<svg xmlns="http://www.w3.org/2000/svg" width="24" height="24" fill="none" class="text-white" viewBox="0 0 24 24" style="min-width: 24px; min-height: 24px;"><path fill="currentColor" d="M15.403 9.735c-.103-2.924-4.325-2.921-4.428 0 0 .701.337 1.358.903 1.774a2.21 2.21 0 0 0-.903 1.777c0 1.215.993 2.205 2.216 2.205 2.118.004 3.02-2.736 1.309-3.982a2.2 2.2 0 0 0 .903-1.774m-2.212.675c-.896-.023-.895-1.329 0-1.35.894.023.894 1.324 0 1.35m0 2.201c.894.026.894 1.325 0 1.35-.895-.023-.895-1.326 0-1.35m-5.563 2.873h1.56c.026 0 .048-.023.048-.045V7.583c.001-.033-.035-.056-.063-.042l-2.54.99q-.028.013-.03.042v1c-.003.029.03.053.053.046l.923-.139v5.959c0 .022.022.045.049.045"></path><path fill="currentColor" d="M18.501 16.338a.987.987 0 0 0-1.324.23 7.57 7.57 0 0 1-6.101 3.037c-4.437.076-8.182-4.05-7.586-8.472.382-3.457 3.172-6.266 6.637-6.678 3.012-.36 5.951 1.068 7.493 3.637.39.705 1.555.566 1.785-.21a.97.97 0 0 0-.087-.825c-4.874-8-17.195-5.01-17.85 4.339-.44 5.407 4.2 10.28 9.608 10.192a9.56 9.56 0 0 0 7.669-3.802c.354-.447.244-1.15-.244-1.448"></path><path fill="currentColor" d="M21.683 11.64h-1.076v-1.072a.865.865 0 0 0-1.729 0v1.072h-1.072c-1.14.03-1.145 1.69 0 1.721h1.072v1.073a.865.865 0 0 0 1.729 0v-1.072h1.076c1.138-.03 1.136-1.693 0-1.722"></path></svg>